<mxfile host="65bd71144e">
    <diagram name="Sequence Diagram - Authentification Keycloak" id="auth-sequence-diagram">
        <mxGraphModel dx="1422" dy="772" grid="1" gridSize="10" guides="1" tooltips="1" connect="1" arrows="1" fold="1" page="1" pageScale="1" pageWidth="1600" pageHeight="1200" math="0" shadow="0">
            <root>
                <mxCell id="0"/>
                <mxCell id="1" parent="0"/>
                
                <!-- Title -->
                <mxCell id="Title" value="Diagramme de Séquence - Authentification avec Keycloak&#xa;Application d'Analyse de Sentiment Hespress" style="text;html=1;strokeColor=none;fillColor=none;align=center;verticalAlign=middle;whiteSpace=wrap;rounded=0;fontStyle=1;fontSize=16;" vertex="1" parent="1">
                    <mxGeometry x="400" y="10" width="600" height="40" as="geometry"/>
                </mxCell>
                
                <!-- Actors and Systems -->
                <mxCell id="User" value="Utilisateur&#xa;(Analyste)" style="shape=umlActor;verticalLabelPosition=bottom;verticalAlign=top;html=1;outlineConnect=0;fillColor=#dae8fc;strokeColor=#6c8ebf;" vertex="1" parent="1">
                    <mxGeometry x="80" y="80" width="30" height="60" as="geometry"/>
                </mxCell>
                
                <mxCell id="Browser" value="Navigateur&#xa;Web" style="rounded=1;whiteSpace=wrap;html=1;fillColor=#e1d5e7;strokeColor=#9673a6;" vertex="1" parent="1">
                    <mxGeometry x="200" y="80" width="80" height="60" as="geometry"/>
                </mxCell>
                
                <mxCell id="NextJS" value="Next.js&#xa;Frontend" style="rounded=1;whiteSpace=wrap;html=1;fillColor=#e1d5e7;strokeColor=#9673a6;" vertex="1" parent="1">
                    <mxGeometry x="320" y="80" width="80" height="60" as="geometry"/>
                </mxCell>
                
                <mxCell id="SpringGateway" value="Spring&#xa;API Gateway" style="rounded=1;whiteSpace=wrap;html=1;fillColor=#d5e8d4;strokeColor=#82b366;" vertex="1" parent="1">
                    <mxGeometry x="480" y="80" width="80" height="60" as="geometry"/>
                </mxCell>
                
                <mxCell id="Keycloak" value="Keycloak&#xa;Auth Server" style="rounded=1;whiteSpace=wrap;html=1;fillColor=#ffe6cc;strokeColor=#d79b00;" vertex="1" parent="1">
                    <mxGeometry x="640" y="80" width="80" height="60" as="geometry"/>
                </mxCell>
                
                <mxCell id="FastAPI" value="FastAPI&#xa;Backend" style="rounded=1;whiteSpace=wrap;html=1;fillColor=#fff2cc;strokeColor=#d6b656;" vertex="1" parent="1">
                    <mxGeometry x="800" y="80" width="80" height="60" as="geometry"/>
                </mxCell>
                
                <mxCell id="PostgreSQL" value="PostgreSQL&#xa;Database" style="rounded=1;whiteSpace=wrap;html=1;fillColor=#f5f5f5;strokeColor=#666666;" vertex="1" parent="1">
                    <mxGeometry x="960" y="80" width="80" height="60" as="geometry"/>
                </mxCell>
                
                <mxCell id="Redis" value="Redis&#xa;Cache" style="rounded=1;whiteSpace=wrap;html=1;fillColor=#f8cecc;strokeColor=#b85450;" vertex="1" parent="1">
                    <mxGeometry x="1120" y="80" width="80" height="60" as="geometry"/>
                </mxCell>
                
                <!-- Lifelines -->
                <mxCell id="UserLifeline" value="" style="endArrow=none;dashed=1;html=1;dashPattern=1 3;strokeWidth=2;" edge="1" parent="1">
                    <mxGeometry width="50" height="50" relative="1" as="geometry">
                        <mxPoint x="95" y="140" as="sourcePoint"/>
                        <mxPoint x="95" y="900" as="targetPoint"/>
                    </mxGeometry>
                </mxCell>
                
                <mxCell id="BrowserLifeline" value="" style="endArrow=none;dashed=1;html=1;dashPattern=1 3;strokeWidth=2;" edge="1" parent="1">
                    <mxGeometry width="50" height="50" relative="1" as="geometry">
                        <mxPoint x="240" y="140" as="sourcePoint"/>
                        <mxPoint x="240" y="900" as="targetPoint"/>
                    </mxGeometry>
                </mxCell>
                
                <mxCell id="NextJSLifeline" value="" style="endArrow=none;dashed=1;html=1;dashPattern=1 3;strokeWidth=2;" edge="1" parent="1">
                    <mxGeometry width="50" height="50" relative="1" as="geometry">
                        <mxPoint x="360" y="140" as="sourcePoint"/>
                        <mxPoint x="360" y="900" as="targetPoint"/>
                    </mxGeometry>
                </mxCell>
                
                <mxCell id="SpringGatewayLifeline" value="" style="endArrow=none;dashed=1;html=1;dashPattern=1 3;strokeWidth=2;" edge="1" parent="1">
                    <mxGeometry width="50" height="50" relative="1" as="geometry">
                        <mxPoint x="520" y="140" as="sourcePoint"/>
                        <mxPoint x="520" y="900" as="targetPoint"/>
                    </mxGeometry>
                </mxCell>
                
                <mxCell id="KeycloakLifeline" value="" style="endArrow=none;dashed=1;html=1;dashPattern=1 3;strokeWidth=2;" edge="1" parent="1">
                    <mxGeometry width="50" height="50" relative="1" as="geometry">
                        <mxPoint x="680" y="140" as="sourcePoint"/>
                        <mxPoint x="680" y="900" as="targetPoint"/>
                    </mxGeometry>
                </mxCell>
                
                <mxCell id="FastAPILifeline" value="" style="endArrow=none;dashed=1;html=1;dashPattern=1 3;strokeWidth=2;" edge="1" parent="1">
                    <mxGeometry width="50" height="50" relative="1" as="geometry">
                        <mxPoint x="840" y="140" as="sourcePoint"/>
                        <mxPoint x="840" y="900" as="targetPoint"/>
                    </mxGeometry>
                </mxCell>
                
                <mxCell id="PostgreSQLLifeline" value="" style="endArrow=none;dashed=1;html=1;dashPattern=1 3;strokeWidth=2;" edge="1" parent="1">
                    <mxGeometry width="50" height="50" relative="1" as="geometry">
                        <mxPoint x="1000" y="140" as="sourcePoint"/>
                        <mxPoint x="1000" y="900" as="targetPoint"/>
                    </mxGeometry>
                </mxCell>
                
                <mxCell id="RedisLifeline" value="" style="endArrow=none;dashed=1;html=1;dashPattern=1 3;strokeWidth=2;" edge="1" parent="1">
                    <mxGeometry width="50" height="50" relative="1" as="geometry">
                        <mxPoint x="1160" y="140" as="sourcePoint"/>
                        <mxPoint x="1160" y="900" as="targetPoint"/>
                    </mxGeometry>
                </mxCell>
                
                <!-- Phase 1: Login Initiation -->
                <mxCell id="Phase1" value="Phase 1: Initiation de la Connexion" style="text;html=1;strokeColor=none;fillColor=#e6f3ff;align=left;verticalAlign=middle;whiteSpace=wrap;rounded=1;fontStyle=1;fontSize=12;" vertex="1" parent="1">
                    <mxGeometry x="50" y="170" width="250" height="30" as="geometry"/>
                </mxCell>
                
                <mxCell id="Arrow1" value="1: Accès Dashboard Sentiment" style="html=1;verticalAlign=bottom;endArrow=block;rounded=0;strokeWidth=2;" edge="1" parent="1">
                    <mxGeometry width="50" height="50" relative="1" as="geometry">
                        <mxPoint x="95" y="210" as="sourcePoint"/>
                        <mxPoint x="240" y="210" as="targetPoint"/>
                    </mxGeometry>
                </mxCell>
                
                <mxCell id="Arrow2" value="2: GET /dashboard" style="html=1;verticalAlign=bottom;endArrow=block;rounded=0;strokeWidth=2;" edge="1" parent="1">
                    <mxGeometry width="50" height="50" relative="1" as="geometry">
                        <mxPoint x="240" y="230" as="sourcePoint"/>
                        <mxPoint x="360" y="230" as="targetPoint"/>
                    </mxGeometry>
                </mxCell>
                
                <mxCell id="Arrow3" value="3: Vérification Auth Required" style="html=1;verticalAlign=bottom;endArrow=block;rounded=0;strokeWidth=2;" edge="1" parent="1">
                    <mxGeometry width="50" height="50" relative="1" as="geometry">
                        <mxPoint x="360" y="250" as="sourcePoint"/>
                        <mxPoint x="360" y="270" as="targetPoint"/>
                    </mxGeometry>
                </mxCell>
                
                <mxCell id="Arrow4" value="4: Redirection vers Keycloak" style="html=1;verticalAlign=bottom;endArrow=block;rounded=0;strokeWidth=2;" edge="1" parent="1">
                    <mxGeometry width="50" height="50" relative="1" as="geometry">
                        <mxPoint x="360" y="290" as="sourcePoint"/>
                        <mxPoint x="680" y="290" as="targetPoint"/>
                    </mxGeometry>
                </mxCell>
                
                <!-- Phase 2: Keycloak Authentication -->
                <mxCell id="Phase2" value="Phase 2: Authentification Keycloak" style="text;html=1;strokeColor=none;fillColor=#ffe6cc;align=left;verticalAlign=middle;whiteSpace=wrap;rounded=1;fontStyle=1;fontSize=12;" vertex="1" parent="1">
                    <mxGeometry x="50" y="330" width="250" height="30" as="geometry"/>
                </mxCell>
                
                <mxCell id="Arrow5" value="5: Page Login Keycloak" style="html=1;verticalAlign=bottom;endArrow=block;rounded=0;strokeWidth=2;dashed=1;" edge="1" parent="1">
                    <mxGeometry width="50" height="50" relative="1" as="geometry">
                        <mxPoint x="680" y="370" as="sourcePoint"/>
                        <mxPoint x="240" y="370" as="targetPoint"/>
                    </mxGeometry>
                </mxCell>
                
                <mxCell id="Arrow6" value="6: Saisie Credentials" style="html=1;verticalAlign=bottom;endArrow=block;rounded=0;strokeWidth=2;" edge="1" parent="1">
                    <mxGeometry width="50" height="50" relative="1" as="geometry">
                        <mxPoint x="95" y="390" as="sourcePoint"/>
                        <mxPoint x="240" y="390" as="targetPoint"/>
                    </mxGeometry>
                </mxCell>
                
                <mxCell id="Arrow7" value="7: POST /auth/realms/hespress/protocol/openid-connect/token" style="html=1;verticalAlign=bottom;endArrow=block;rounded=0;strokeWidth=2;" edge="1" parent="1">
                    <mxGeometry width="50" height="50" relative="1" as="geometry">
                        <mxPoint x="240" y="410" as="sourcePoint"/>
                        <mxPoint x="680" y="410" as="targetPoint"/>
                    </mxGeometry>
                </mxCell>
                
                <mxCell id="Arrow8" value="8: Validation Credentials" style="html=1;verticalAlign=bottom;endArrow=block;rounded=0;strokeWidth=2;" edge="1" parent="1">
                    <mxGeometry width="50" height="50" relative="1" as="geometry">
                        <mxPoint x="680" y="430" as="sourcePoint"/>
                        <mxPoint x="680" y="450" as="targetPoint"/>
                    </mxGeometry>
                </mxCell>
                
                <mxCell id="Arrow9" value="9: Génération JWT Token" style="html=1;verticalAlign=bottom;endArrow=block;rounded=0;strokeWidth=2;" edge="1" parent="1">
                    <mxGeometry width="50" height="50" relative="1" as="geometry">
                        <mxPoint x="680" y="470" as="sourcePoint"/>
                        <mxPoint x="680" y="490" as="targetPoint"/>
                    </mxGeometry>
                </mxCell>
                
                <mxCell id="Arrow10" value="10: JWT Token + Redirect URI" style="html=1;verticalAlign=bottom;endArrow=block;rounded=0;strokeWidth=2;dashed=1;" edge="1" parent="1">
                    <mxGeometry width="50" height="50" relative="1" as="geometry">
                        <mxPoint x="680" y="510" as="sourcePoint"/>
                        <mxPoint x="360" y="510" as="targetPoint"/>
                    </mxGeometry>
                </mxCell>
                
                <!-- Phase 3: Token Storage and Access -->
                <mxCell id="Phase3" value="Phase 3: Stockage Token et Accès Sécurisé" style="text;html=1;strokeColor=none;fillColor=#d5e8d4;align=left;verticalAlign=middle;whiteSpace=wrap;rounded=1;fontStyle=1;fontSize=12;" vertex="1" parent="1">
                    <mxGeometry x="50" y="550" width="300" height="30" as="geometry"/>
                </mxCell>
                
                <mxCell id="Arrow11" value="11: Stockage JWT (localStorage/cookie)" style="html=1;verticalAlign=bottom;endArrow=block;rounded=0;strokeWidth=2;" edge="1" parent="1">
                    <mxGeometry width="50" height="50" relative="1" as="geometry">
                        <mxPoint x="360" y="590" as="sourcePoint"/>
                        <mxPoint x="360" y="610" as="targetPoint"/>
                    </mxGeometry>
                </mxCell>
                
                <mxCell id="Arrow12" value="12: Redirection Dashboard" style="html=1;verticalAlign=bottom;endArrow=block;rounded=0;strokeWidth=2;dashed=1;" edge="1" parent="1">
                    <mxGeometry width="50" height="50" relative="1" as="geometry">
                        <mxPoint x="360" y="630" as="sourcePoint"/>
                        <mxPoint x="95" y="630" as="targetPoint"/>
                    </mxGeometry>
                </mxCell>
                
                <!-- Phase 4: Secured API Calls -->
                <mxCell id="Phase4" value="Phase 4: Appels API Sécurisés" style="text;html=1;strokeColor=none;fillColor=#fff2cc;align=left;verticalAlign=middle;whiteSpace=wrap;rounded=1;fontStyle=1;fontSize=12;" vertex="1" parent="1">
                    <mxGeometry x="50" y="670" width="250" height="30" as="geometry"/>
                </mxCell>
                
                <mxCell id="Arrow13" value="13: GET /api/sentiment/stats (Authorization: Bearer JWT)" style="html=1;verticalAlign=bottom;endArrow=block;rounded=0;strokeWidth=2;" edge="1" parent="1">
                    <mxGeometry width="50" height="50" relative="1" as="geometry">
                        <mxPoint x="360" y="710" as="sourcePoint"/>
                        <mxPoint x="520" y="710" as="targetPoint"/>
                    </mxGeometry>
                </mxCell>
                
                <mxCell id="Arrow14" value="14: Validation JWT Token" style="html=1;verticalAlign=bottom;endArrow=block;rounded=0;strokeWidth=2;" edge="1" parent="1">
                    <mxGeometry width="50" height="50" relative="1" as="geometry">
                        <mxPoint x="520" y="730" as="sourcePoint"/>
                        <mxPoint x="680" y="730" as="targetPoint"/>
                    </mxGeometry>
                </mxCell>
                
                <mxCell id="Arrow15" value="15: Token Valid + User Info" style="html=1;verticalAlign=bottom;endArrow=block;rounded=0;strokeWidth=2;dashed=1;" edge="1" parent="1">
                    <mxGeometry width="50" height="50" relative="1" as="geometry">
                        <mxPoint x="680" y="750" as="sourcePoint"/>
                        <mxPoint x="520" y="750" as="targetPoint"/>
                    </mxGeometry>
                </mxCell>
                
                <mxCell id="Arrow16" value="16: Forward Request to FastAPI" style="html=1;verticalAlign=bottom;endArrow=block;rounded=0;strokeWidth=2;" edge="1" parent="1">
                    <mxGeometry width="50" height="50" relative="1" as="geometry">
                        <mxPoint x="520" y="770" as="sourcePoint"/>
                        <mxPoint x="840" y="770" as="targetPoint"/>
                    </mxGeometry>
                </mxCell>
                
                <mxCell id="Arrow17" value="17: Check Cache Redis" style="html=1;verticalAlign=bottom;endArrow=block;rounded=0;strokeWidth=2;" edge="1" parent="1">
                    <mxGeometry width="50" height="50" relative="1" as="geometry">
                        <mxPoint x="840" y="790" as="sourcePoint"/>
                        <mxPoint x="1160" y="790" as="targetPoint"/>
                    </mxGeometry>
                </mxCell>
                
                <mxCell id="Arrow18" value="18: Query PostgreSQL" style="html=1;verticalAlign=bottom;endArrow=block;rounded=0;strokeWidth=2;" edge="1" parent="1">
                    <mxGeometry width="50" height="50" relative="1" as="geometry">
                        <mxPoint x="840" y="810" as="sourcePoint"/>
                        <mxPoint x="1000" y="810" as="targetPoint"/>
                    </mxGeometry>
                </mxCell>
                
                <mxCell id="Arrow19" value="19: Données Sentiment" style="html=1;verticalAlign=bottom;endArrow=block;rounded=0;strokeWidth=2;dashed=1;" edge="1" parent="1">
                    <mxGeometry width="50" height="50" relative="1" as="geometry">
                        <mxPoint x="1000" y="830" as="sourcePoint"/>
                        <mxPoint x="840" y="830" as="targetPoint"/>
                    </mxGeometry>
                </mxCell>
                
                <mxCell id="Arrow20" value="20: Response JSON" style="html=1;verticalAlign=bottom;endArrow=block;rounded=0;strokeWidth=2;dashed=1;" edge="1" parent="1">
                    <mxGeometry width="50" height="50" relative="1" as="geometry">
                        <mxPoint x="840" y="850" as="sourcePoint"/>
                        <mxPoint x="360" y="850" as="targetPoint"/>
                    </mxGeometry>
                </mxCell>
                
                <mxCell id="Arrow21" value="21: Affichage Dashboard" style="html=1;verticalAlign=bottom;endArrow=block;rounded=0;strokeWidth=2;dashed=1;" edge="1" parent="1">
                    <mxGeometry width="50" height="50" relative="1" as="geometry">
                        <mxPoint x="360" y="870" as="sourcePoint"/>
                        <mxPoint x="95" y="870" as="targetPoint"/>
                    </mxGeometry>
                </mxCell>
                
                <!-- Notes -->
                <mxCell id="Note1" value="Notes:&#xa;• JWT Token contient les rôles utilisateur (analyst, admin)&#xa;• Token expiré nécessite un refresh automatique&#xa;• Spring Gateway filtre toutes les requêtes API&#xa;• Redis cache les sessions et données fréquentes" style="text;html=1;strokeColor=none;fillColor=#f8f8f8;align=left;verticalAlign=top;whiteSpace=wrap;rounded=1;fontStyle=0;fontSize=10;" vertex="1" parent="1">
                    <mxGeometry x="1250" y="200" width="300" height="120" as="geometry"/>
                </mxCell>
                
                <mxCell id="Note2" value="Realm Keycloak: 'hespress-sentiment'&#xa;Client ID: 'sentiment-app'&#xa;Roles: 'sentiment-analyst', 'admin'" style="text;html=1;strokeColor=none;fillColor=#ffe6cc;align=left;verticalAlign=top;whiteSpace=wrap;rounded=1;fontStyle=0;fontSize=10;" vertex="1" parent="1">
                    <mxGeometry x="1250" y="350" width="250" height="80" as="geometry"/>
                </mxCell>
                
            </root>
        </mxGraphModel>
    </diagram>
</mxfile>
